<?xml version="1.0" encoding="utf-8"?>
<!-- Generator: Adobe Illustrator 19.0.0, SVG Export Plug-In . SVG Version: 6.00 Build 0)  -->
<svg version="1.1" id="Layer_1" xmlns="http://www.w3.org/2000/svg" xmlns:xlink="http://www.w3.org/1999/xlink" x="0px" y="0px"
	 viewBox="14.4 359 551.5 88.8" style="enable-background:new 14.4 359 551.5 88.8;" xml:space="preserve">
<style type="text/css">
	.st0{fill:#FFFFFF;}
</style>
<g id="Layer_2">
</g>
<g id="Layer_1_1_">
	<g>
		<g>
			<path class="st0" d="M104.1,417.4c-3.1,2.8-10.3,7.9-22.5,7.9c-15.7,0-28-8.6-28-25.8c0-18,12.6-26.8,28.2-26.8
				c17.9,0,21.5,13.1,22,20.1c-8.9,3.8-19.9,6.7-30,8.9c1.1,6.8,4.3,15.7,17.8,15.8c6.3,0,10-2.1,11.7-2.8L104.1,417.4z M72.9,396.1
				c5.4-0.6,9.4-1.2,14.8-2.6c-0.2-3-1.2-15.9-8.4-15.9c-5.7,0-6.6,7.5-6.6,12.8C72.7,392.3,72.9,394.2,72.9,396.1z"/>
			<path class="st0" d="M147.3,419.1c-1.2,0.9-9,6.2-19.3,6.2c-29,0-29-21-29-25.5c0-7.2,6.5-27.1,30.4-27.1
				c14.8,0,15.4,4.2,16.7,4.3c-0.7,4.3-2.1,7.3-5.9,10.6h-1.6c-1.5-2.1-6.5-8.9-12-8.9c-5.6,0-8.6,7.2-8.6,16.4
				c0,15.4,8.9,22.3,19.2,22.3c4.2,0,6.7-0.4,8.9-0.9L147.3,419.1z"/>
			<path class="st0" d="M230.4,417.4c-3.1,2.8-10.3,7.9-22.5,7.9c-15.7,0-28-8.6-28-25.8c0-18,12.6-26.8,28.2-26.8
				c17.9,0,21.5,13.1,22,20.1c-8.9,3.8-19.9,6.7-30,8.9c1.1,6.8,4.3,15.7,17.8,15.8c6.3,0,10-2.1,11.7-2.8L230.4,417.4z
				 M199.1,396.1c5.4-0.6,9.4-1.2,14.8-2.6c-0.2-3-1.2-15.9-8.4-15.9c-5.7,0-6.6,7.5-6.6,12.8C198.9,392.3,199.1,394.2,199.1,396.1z
				"/>
			<path class="st0" d="M47.1,389.8c-0.3-3-3.4-12.3-10.5-12.3c-0.4,0-5.5,0-5.5,5.4c0,2.6,0,5.6,15,12.6c6.7,3.1,9.5,9.1,9.5,13.6
				c0,11.8-10.5,16.2-22.8,16.2c-6.5,0-11.3-1.2-16.7-3.7c-0.8-4.1-1.7-10.5-1.7-16.5h6.2c1.2,9.9,7.4,15.3,12.5,15.3
				c5.4,0,6.3-3,6.3-6.1c0-2.3-2-5.7-7.9-8.9c-7.2-3.7-16.6-7-16.6-17.6c0-9.2,7.1-15.2,21.7-15.2c7.4,0,11.9,1.7,14.8,3
				c1.1,4.6,1.1,9.5,1.1,14.1L47.1,389.8"/>
			<path class="st0" d="M229.2,374.3v-5.1c0-11.9,17.7-10.1,17.7-10.1v15.2c4.8,0.4,7.7,0.5,12.1,0.9v2.8c-3.6,0.5-8.7,1.1-12.1,1.2
				V397c0,11.4,0.1,20.8,10,20.8c2.1,0,3.9-0.7,5.1-1l0.8,2.8c-3.1,2-8.2,5.6-20.2,5.6c-1.6,0-13.3,0-13.3-15.4v-30.6L229.2,374.3
				L229.2,374.3z"/>
			<path class="st0" d="M150.6,425.2l0.1-32.6c0-7.3,0-11.3-3-11.3h-3l-0.9-3.3c10-2.9,14.8-4,22.7-5.4c0.8,2.9,0.9,3.9,1.2,7.6
				c2.8-2.8,6.7-7.6,12.7-7.6c6.1,0,8.2,4.3,9.4,6.7c-0.9,4-3.4,7.3-7.7,9.8c-3.1,0-5.9-3.1-11.1-4.4c-0.9-0.2-1.7-0.4-2.6-0.5v26.4
				l-0.1,4.6C168.2,427.1,150.6,425.2,150.6,425.2z"/>
		</g>
		<g>
			<path class="st0" d="M400.5,420.6c-2.8,2.1-8.5,4.6-17.1,4.6c-12.4,0-25.3-7.3-25.3-22.9c0-20.8,14.8-29.7,27.9-29.7
				c5.2,0,10.1,1.2,12.6,3.1c0,2.2-1.2,5.4-2.8,7.9h-0.7c-1.6-2.3-5.6-6-12.7-6c-7.8,0-14.3,6.2-14.3,18.4
				c0,17.1,8.8,25.3,21.2,25.3c4.3,0,8.9-2.5,10.4-3.4L400.5,420.6z"/>
			<path class="st0" d="M444.6,422.4c-1.4,1-3.7,2.7-8.2,2.7c-5.5,0-7.5-2.3-8.6-4.6c-3.5,2.3-7.5,4.6-15.9,4.6
				c-8,0-13.5-4.6-13.5-10.5c0-14.1,18.8-18.3,28.3-21.2V391c0-7.2-2-13.3-10.1-13.3c-8.7,0-11.4,6.8-13.5,10.8h-0.9
				c-1.2-1.3-2.1-2.4-2.8-4.3c3.3-4.3,10.2-11.6,21.7-11.6c12.4,0,15,6.5,15,17.6v15.5c0,7.6,0,15.7,6,15.7c1.1,0,1.5-0.2,2-0.4
				L444.6,422.4z M425.2,398.6c-6.2,0-16.8,2.7-16.8,12.9c0,6.2,3.9,9.9,10.1,9.9c4.8,0,7.5-3.4,8.2-4.4v-18.4H425.2z"/>
			<path class="st0" d="M533.5,419.1c-1.7,1.6-9.1,6.1-19,6.1c-13.7,0-24.8-9.1-24.8-24.5c0-18.3,12.7-28.1,25.2-28.1
				c14.5,0,17.7,10.5,19.1,16.4c-12.4,6.1-24.9,9.4-34.3,11.6c0.4,6.7,5.6,19.5,20.3,19.5c6.6,0,10.7-2.7,12.3-3.5L533.5,419.1z
				 M499.7,395.7c7.8-1.4,16.9-3.7,24.5-6.2c-1.5-6.7-4.2-13.2-12.5-13.2C502.5,376.3,499.7,387.8,499.7,395.7z"/>
			<path class="st0" d="M559.2,388.8c0-4.9-3.5-12.7-10.5-12.7c-4.1,0-6.9,2.9-6.9,7.7c0,12.4,24.1,8.8,24.1,26.1
				c0,10.3-8.5,15.2-18.8,15.2c-7.1,0-10.8-1.8-13.8-3.1c-1.6-4.9-2.1-10.3-2.1-14.5h2.9c2.2,7.1,5.9,14.1,14.5,14.1
				c4.9,0,7.7-4.2,7.7-8c0-14.8-24.1-9.5-24.1-27.2c0-8.9,7.9-13.8,17.4-13.8c5.7,0,9.1,1.7,11.5,3.1c1.1,3.9,1.4,7.4,1.4,13.1
				H559.2L559.2,388.8z"/>
			<path class="st0" d="M331,419c-2.3,2.2-10.2,10.9-24.9,11.1c-18.5,0.2-33.6-12.3-33.6-33.1c0-24.8,17.2-38,34-38
				c19.6,0,23.9,14.2,25.8,22.1c-16.7,8.2-33.7,12.8-46.3,15.7c0.6,9.1,7.6,26.4,27.4,26.4c8.9,0,13.2-5.9,15.2-6.9 M286.1,390.3
				c10.6-1.9,22.9-5,33.1-8.4c-2.1-9.1-5.7-17.9-16.9-17.9C289.9,364.1,286.1,379.6,286.1,390.3z"/>
			<path class="st0" d="M352.7,388.8c0-4.9-3.5-12.7-10.5-12.7c-4.1,0-6.9,2.9-6.9,7.7c0,12.4,24.1,8.8,24.1,26.1
				c0,10.3-8.5,15.2-18.8,15.2c-7.1,0-10.8-1.8-13.8-3.1c-1.6-4.9-2.1-10.3-2.1-14.5h2.9c2.2,7.1,5.9,14.1,14.5,14.1
				c4.9,0,7.7-4.2,7.7-8c0-14.8-24.1-9.5-24.1-27.2c0-8.9,7.9-13.8,17.4-13.8c5.8,0,9.1,1.7,11.5,3.1c1.1,3.9,1.4,7.4,1.4,13.1
				H352.7L352.7,388.8z"/>
			<path class="st0" d="M467.1,372.5c-7.4,0-12.1,3.1-14.5,4.6c0-0.9-0.5-3.4-1.3-4.6c-3.8,0-12.4,2.8-15.5,3.8l0.4,2.6l2.4-0.7
				c0.2,0,1-0.1,1.5-0.1c3,0,3,3,3,13.7v55.9H443c0,0,9.5,1,9.5-5.4v-2.8v-2.8v-12.8c1.7,0.4,4.3,1.2,8.9,1.2
				c11.9,0,29.3-7.1,29.3-29C490.7,381,480,372.5,467.1,372.5z M464.6,421.3c-7.1,0-9.2-2.1-12-3.9v-37.3c1.7-0.8,4.5-2.5,9.1-2.5
				c9.8,0,19.1,6.7,19.1,20.9C480.7,412.4,475.4,421.3,464.6,421.3z"/>
		</g>
	</g>
</g>
</svg>
